HIERARCHY
ROOT Root
{
	OFFSET 0.00 0.00 0.00
	CHANNELS 6 Xposition Yposition Zposition Xrotation Yrotation Zrotation
	JOINT L_Femur
	{
		OFFSET 2.78527 0.00000 0.00000
		CHANNELS 3 Xrotation Yrotation Zrotation
		JOINT L_Tibia
		{
			OFFSET 0.00000 -16.41095 0.00000
			CHANNELS 3 Xrotation Yrotation Zrotation
			JOINT L_Foot
			{
				OFFSET 0.00000 -14.21163 0.00000
				CHANNELS 3 Xrotation Yrotation Zrotation
				JOINT L_Toe
				{
					OFFSET 0.00000 -1.60827 6.00215
					CHANNELS 3 Xrotation Yrotation Zrotation
					End Site
					{
						OFFSET 0.00000 0.00000 2.95275
					}
				}
			}
		}
	}
	JOINT R_Femur
	{
		OFFSET -2.78527 0.00000 0.00000
		CHANNELS 3 Xrotation Yrotation Zrotation
		JOINT R_Tibia
		{
			OFFSET 0.00000 -16.41095 0.00000
			CHANNELS 3 Xrotation Yrotation Zrotation
			JOINT R_Foot
			{
				OFFSET 0.00000 -14.21163 0.00000
				CHANNELS 3 Xrotation Yrotation Zrotation
				JOINT R_Toe
				{
					OFFSET 0.00000 -1.60827 6.00215
					CHANNELS 3 Xrotation Yrotation Zrotation
					End Site
					{
						OFFSET 0.00000 0.00000 2.95275
					}
				}
			}
		}
	}
	JOINT LowerBack
	{
		OFFSET 0.00000 0.03937 0.00000
		CHANNELS 3 Xrotation Yrotation Zrotation
		JOINT Thorax
		{
			OFFSET 0.00000 7.01329 0.00000
			CHANNELS 3 Xrotation Yrotation Zrotation
			JOINT Neck
			{
				OFFSET 0.00000 7.25825 0.00000
				CHANNELS 3 Xrotation Yrotation Zrotation
				JOINT Head
				{
					OFFSET 0.00000 5.63334 0.00000
					CHANNELS 3 Xrotation Yrotation Zrotation
					End Site
					{
						OFFSET 0.00000 4.52755 0.00000
					}
				}
			}
			JOINT L_Collar
			{
				OFFSET 0.00000 7.25825 0.00000
				CHANNELS 3 Xrotation Yrotation Zrotation
				JOINT L_Humerus
				{
					OFFSET 6.91821 -0.00003 0.00000
					CHANNELS 3 Xrotation Yrotation Zrotation
					JOINT L_Elbow
					{
						OFFSET 10.34006 -0.00004 0.00000
						CHANNELS 3 Xrotation Yrotation Zrotation
						JOINT L_Wrist
						{
							OFFSET 7.25554 -0.00003 0.00000
							CHANNELS 3 Xrotation Yrotation Zrotation
							JOINT L_Thumb
							{
								OFFSET 0.00000 0.00000 0.00000
								CHANNELS 3 Xrotation Yrotation Zrotation
								End Site
								{
									OFFSET 0.00000 0.00000 3.93700
								}
							}
							JOINT L_Wrist_End
							{
								OFFSET 3.93700 -0.00001 0.00000
								CHANNELS 3 Xrotation Yrotation Zrotation
							}
						}
					}
				}
			}
			JOINT R_Collar
			{
				OFFSET 0.00000 7.25825 0.00000
				CHANNELS 3 Xrotation Yrotation Zrotation
				JOINT R_Humerus
				{
					OFFSET -6.91821 -0.00003 0.00000
					CHANNELS 3 Xrotation Yrotation Zrotation
					JOINT R_Elbow
					{
						OFFSET -10.34006 -0.00004 0.00000
						CHANNELS 3 Xrotation Yrotation Zrotation
						JOINT R_Wrist
						{
							OFFSET -7.25554 -0.00003 0.00000
							CHANNELS 3 Xrotation Yrotation Zrotation
							JOINT R_Thumb
							{
								OFFSET 0.00000 0.00000 0.00000
								CHANNELS 3 Xrotation Yrotation Zrotation
								End Site
								{
									OFFSET 0.00000 0.00000 3.93700
								}
							}
							JOINT R_Wrist_End
							{
								OFFSET -5.39369 -0.00002 0.00000
								CHANNELS 3 Xrotation Yrotation Zrotation
							}
						}
					}
				}
			}
		}
	}
}
MOTION
Frames: 16
Frame Time: 0.033332
 14.3155 32.6208 -37.6369 171.7897 -9.7659 177.3038 -16.1226 30.4450 11.5330 9.3445 -0.0000 0.0000 -6.6672 -13.5101 -3.8097 -8.7349 0.0000 0.0000 -17.5709 -1.8071 -4.7873 29.9137 -0.0000 0.0000 -19.5286 -0.8172 -2.8327 -9.0027 0.0000 0.0000 -4.7498 -2.1777 -11.9892 3.7170 -2.1038 11.7724 1.7784 -50.6048 4.4486 4.5838 71.5692 -0.7898 3.1190 21.5748 1.2877 -5.7828 -42.4625 -76.5359 -0.0001 -20.5382 -0.0000 -25.0967 1.4659 -6.2081 -0.0000 0.0000 -0.0000 -0.0000 0.0000 -0.0000 9.0028 -5.6068 -8.2437 -10.3555 31.4835 84.7219 -0.0001 35.2177 0.0000 -2.2189 5.3561 -8.7266 -0.0000 0.0000 -0.0000 -0.0000 0.0000 -0.0000
 14.0681 32.6447 -37.5797 171.6291 -9.7543 176.9174 -16.2716 29.7881 11.3758 9.7113 0.0000 0.0000 -7.0423 -12.8990 -3.7505 -8.7150 -0.0000 -0.0000 -17.5349 0.8127 -1.3482 28.7449 -0.0000 0.0000 -20.2732 -0.5909 -2.8496 -8.8310 0.0000 -0.0000 -4.6784 -2.1765 -11.8770 3.5678 -2.0800 11.7848 1.5925 -50.7728 4.3026 5.6963 71.6024 -1.8117 3.0630 21.7727 1.0104 -6.7141 -41.1345 -76.4138 -0.0001 -19.4560 -0.0000 -24.8810 1.3678 -5.8470 -0.0000 0.0000 -0.0000 -0.0000 0.0000 -0.0000 8.8920 -5.4771 -8.2967 -10.3483 32.5114 84.5157 -0.0001 35.1088 0.0000 -2.0381 5.3064 -8.7363 -0.0000 0.0000 -0.0000 -0.0000 0.0000 -0.0000
 13.8182 32.6641 -37.5436 171.5215 -9.7356 176.7872 -15.9847 29.7985 10.9093 9.4158 0.0000 0.0000 -7.2169 -12.8964 -3.9927 -8.6329 -0.0000 -0.0000 -17.6192 4.7780 1.4951 27.1949 -0.0000 0.0000 -20.6830 1.2690 -1.8762 -8.9694 -0.0000 -0.0000 -4.6968 -2.1520 -11.7536 3.4575 -2.0591 11.8248 1.5008 -50.7938 4.1241 6.7897 71.6216 -3.0031 3.3133 22.0015 0.5519 -8.4030 -39.0504 -77.0248 -0.0001 -18.2303 -0.0000 -24.7337 1.0298 -5.4326 -0.0000 0.0000 -0.0000 -0.0000 0.0000 -0.0000 8.8617 -5.3727 -8.3222 -10.3308 32.9839 84.1872 -0.0001 34.7646 0.0000 -1.9247 5.2177 -8.6743 -0.0000 0.0000 -0.0000 -0.0000 0.0000 -0.0000
 13.5738 32.6764 -37.5260 171.4252 -9.9857 176.7583 -15.7599 30.3088 10.4045 9.1644 -0.0000 0.0000 -7.3476 -13.6261 -4.0580 -8.6581 -0.0000 -0.0000 -17.8046 8.7559 3.6945 25.4711 -0.0000 0.0000 -20.8674 2.9313 -0.5362 -9.1497 0.0000 0.0000 -4.7441 -2.2374 -11.5637 3.3830 -2.1532 11.9405 1.3994 -50.7959 3.9437 7.6213 71.6439 -4.0273 3.3744 22.0828 0.3069 -9.5450 -37.4263 -77.8057 -0.0001 -17.6362 -0.0000 -25.0431 0.7756 -4.9372 -0.0000 0.0000 -0.0000 -0.0000 0.0000 -0.0000 8.9539 -5.4786 -8.3225 -10.5646 32.8231 84.0056 -0.0001 34.1013 0.0000 -1.9306 5.1589 -8.7866 -0.0000 0.0000 -0.0000 -0.0000 0.0000 -0.0000
 13.3176 32.6797 -37.5225 171.3244 -10.6348 176.8176 -15.4053 30.5898 9.6635 8.9313 -0.0000 0.0000 -7.5721 -14.4246 -4.0626 -8.6388 -0.0000 -0.0000 -17.8621 11.5093 5.0127 23.7612 -0.0000 0.0000 -21.0889 3.9606 -0.4827 -9.2937 0.0000 0.0000 -4.8006 -2.4121 -11.2809 3.3031 -2.3395 12.1255 1.3599 -50.8396 3.8803 8.2825 71.6268 -4.9520 3.2022 21.9208 0.3035 -10.1554 -36.6898 -78.7492 -0.0001 -17.4984 -0.0000 -25.1252 0.6990 -4.9066 -0.0000 0.0000 -0.0000 -0.0000 0.0000 -0.0000 9.0401 -5.7967 -8.3718 -10.8199 31.9113 83.9881 -0.0001 33.2236 0.0000 -2.0907 5.1736 -8.9056 -0.0000 0.0000 -0.0000 -0.0000 0.0000 -0.0000
 13.0117 32.6575 -37.5195 171.2981 -11.7259 177.4809 -14.4201 29.6521 7.9011 8.8492 0.0000 0.0000 -7.7903 -14.2597 -3.5414 -8.8152 -0.0000 -0.0000 -17.2962 12.5624 4.7355 21.9082 -0.0000 0.0000 -20.5158 4.4033 -0.7856 -9.2216 -0.0000 0.0000 -4.8620 -2.6293 -11.0696 3.2307 -2.5820 12.0738 1.3997 -51.0723 3.8063 8.7155 71.5909 -5.8079 3.1947 21.3045 0.1883 -9.9935 -37.5067 -79.2195 -0.0001 -18.4012 -0.0000 -24.9329 0.9487 -4.9554 -0.0000 0.0000 -0.0000 -0.0000 0.0000 -0.0000 8.7373 -6.0396 -8.5305 -10.6255 29.9785 84.1636 -0.0001 32.1652 0.0000 -2.6078 5.2946 -8.8463 -0.0000 0.0000 -0.0000 -0.0000 0.0000 -0.0000
 12.6979 32.6213 -37.5338 171.4024 -12.4133 178.2888 -13.6195 28.6180 6.2518 9.5434 -0.0000 0.0000 -8.4868 -13.6326 -2.8705 -8.8616 -0.0000 -0.0000 -16.1257 12.5461 3.6549 19.7709 -0.0000 0.0000 -16.6153 5.1143 -2.2237 -9.2146 -0.0000 -0.0000 -4.9428 -2.6677 -10.8338 3.1519 -2.6444 12.1773 1.3596 -51.1708 3.8320 10.5378 71.5759 -8.0179 3.2389 21.1799 0.0552 -9.9457 -39.5294 -79.8622 -0.0001 -19.3743 -0.0000 -23.9256 1.1324 -5.4206 -0.0000 0.0000 -0.0000 -0.0000 0.0000 -0.0000 8.8116 -6.1360 -8.5259 -10.6582 28.2046 84.0045 -0.0001 30.6751 0.0000 -3.2692 5.5518 -8.8873 -0.0000 0.0000 -0.0000 -0.0000 0.0000 -0.0000
 12.4073 32.5505 -37.5218 171.6059 -13.1154 179.0038 -14.0390 26.7074 5.2181 12.5762 -0.0000 0.0000 -10.2970 -12.2580 -1.7765 -8.8554 0.0000 -0.0000 -15.1102 12.0978 2.3047 19.0513 -0.0000 0.0000 -16.7461 4.9505 -2.1169 -9.1522 -0.0000 -0.0000 -4.9070 -2.5970 -10.4431 3.2355 -2.5645 12.4448 1.3919 -51.2465 3.7231 10.4212 71.6141 -8.4904 3.1895 21.1160 0.0189 -10.0670 -41.8612 -80.6847 -0.0001 -20.9478 -0.0000 -22.5202 1.4613 -5.7201 -0.0000 0.0000 -0.0000 -0.0000 0.0000 -0.0000 8.6496 -6.1892 -8.6193 -10.6415 26.5084 83.9156 -0.0001 28.9503 0.0000 -3.8915 5.6751 -8.8968 -0.0000 0.0000 -0.0000 -0.0000 0.0000 -0.0000
 12.1481 32.4671 -37.4685 171.9004 -13.2927 179.3348 -16.2492 25.0118 5.3777 18.5100 0.0000 0.0000 -12.9502 -10.8665 0.5842 -8.8980 -0.0000 -0.0000 -15.1141 12.2838 1.6205 19.9397 -0.0000 0.0000 -16.9931 4.9202 -1.3497 -8.9843 0.0000 0.0000 -4.6812 -2.3214 -9.8405 3.5270 -2.2176 13.0224 1.6030 -51.0940 4.3190 11.2389 71.5856 -10.1818 3.0105 21.4180 0.0975 -10.7083 -43.2573 -82.0546 -0.0001 -22.9347 -0.0000 -20.4726 1.8795 -5.9354 -0.0000 0.0000 -0.0000 -0.0000 0.0000 -0.0000 8.7774 -5.8912 -8.5133 -10.8627 25.1875 83.4174 -0.0001 27.1954 0.0000 -4.4561 5.8319 -8.9876 -0.0000 0.0000 -0.0000 -0.0000 0.0000 -0.0000
 11.9093 32.3391 -37.4035 172.1758 -13.4435 179.3611 -19.0609 25.0286 6.4330 24.8065 -0.0000 0.0000 -15.6717 -11.2010 1.6774 -8.9016 0.0000 0.0000 -15.4623 12.6945 1.3932 21.3874 -0.0000 0.0000 -17.7957 4.5439 -0.7945 -8.8779 0.0000 0.0000 -4.4090 -2.0911 -9.3263 3.8220 -1.8754 13.8702 2.4609 -50.8435 5.5497 11.3600 71.4669 -11.1375 3.2303 21.8952 0.3361 -12.0539 -43.9551 -83.9619 -0.0001 -25.0461 -0.0000 -19.7274 1.8828 -5.7836 -0.0000 -0.0000 0.0000 -0.0000 -0.0000 0.0000 8.8315 -5.2419 -8.2781 -10.6603 24.2663 82.4943 -0.0001 25.8083 0.0000 -4.2993 5.7046 -8.8453 -0.0000 0.0000 -0.0000 -0.0000 0.0000 -0.0000
 11.7027 32.2669 -37.4045 172.2537 -13.6839 178.9587 -21.1688 25.7553 7.9283 28.6399 -0.0000 0.0000 -17.5152 -11.5661 0.2195 -8.8676 0.0000 -0.0000 -15.6483 12.4937 1.4772 22.1945 -0.0000 0.0000 -18.3563 4.3480 -0.2934 -8.7647 0.0000 0.0000 -4.5989 -2.1276 -9.1352 4.0692 -1.8207 15.3605 3.9091 -50.4519 6.4008 10.6900 71.4100 -10.8965 3.8106 22.0961 -0.0562 -12.2732 -43.7318 -84.8877 -0.0001 -27.3071 -0.0000 -20.7113 1.4426 -5.5424 -0.0000 0.0000 -0.0000 -0.0000 0.0000 -0.0000 9.6832 -4.4720 -7.3105 -10.6393 24.8953 80.4716 -0.0001 24.3739 0.0000 -3.9896 5.4823 -8.8907 -0.0000 0.0000 -0.0000 -0.0000 0.0000 -0.0000
 11.4332 32.2989 -37.4370 172.2848 -13.8393 179.0294 -22.1680 26.9818 8.7655 30.3015 -0.0000 0.0000 -19.0711 -10.3818 1.1284 -8.3488 0.0000 0.0000 -15.1151 11.9919 0.7519 21.8001 -0.0000 0.0000 -18.2181 4.8142 -0.0627 -8.6249 0.0000 0.0000 -4.8495 -2.1485 -8.9970 4.1375 -1.8225 16.2280 4.6288 -50.4765 7.1757 14.5010 71.1138 -14.1330 4.0484 22.1023 -0.0582 -12.1784 -44.1990 -85.9096 -0.0001 -28.1445 -0.0000 -22.8617 0.5363 -5.6613 -0.0000 0.0000 -0.0000 -0.0000 0.0000 -0.0000 10.0908 -4.4857 -6.5566 -10.9784 25.4745 79.4928 -0.0001 22.3541 0.0000 -2.4243 4.8102 -9.3806 -0.0000 0.0000 -0.0000 -0.0000 0.0000 -0.0000
 11.1250 32.4033 -37.5121 172.3112 -14.1479 179.3837 -22.2739 27.9173 9.2548 30.0454 0.0000 0.0000 -19.4262 -8.5866 1.9836 -8.3309 -0.0000 -0.0000 -13.9207 12.0835 -0.2784 20.3631 -0.0000 0.0000 -17.5915 4.5137 -0.1857 -8.7027 0.0000 0.0000 -5.0317 -2.3826 -9.0472 4.0138 -2.0614 16.8716 4.7877 -50.7207 7.5645 19.0541 70.7137 -17.8074 3.7854 22.0284 0.6700 -11.7861 -44.9111 -87.3503 -0.0001 -28.1432 -0.0000 -22.5646 0.7788 -6.0652 -0.0000 0.0000 -0.0000 -0.0000 0.0000 -0.0000 9.9913 -5.1295 -6.6062 -11.6121 24.4500 80.2164 -0.0001 20.7742 0.0000 -0.4709 3.7938 -9.9077 -0.0000 0.0000 -0.0000 -0.0000 0.0000 -0.0000
 10.7459 32.5348 -37.5984 172.5447 -14.4470 -179.5489 -21.1642 28.6510 9.0144 28.0548 -0.0000 0.0000 -18.6950 -8.4554 2.4348 -8.0741 0.0000 0.0000 -12.1149 12.3034 -2.1332 18.5363 -0.0000 0.0000 -16.8913 4.2155 -0.2712 -8.8441 0.0000 0.0000 -5.1107 -2.4960 -9.2966 4.0712 -2.2142 17.0534 4.3658 -51.1818 7.3179 20.8037 70.4513 -19.1478 3.7549 21.8085 0.9630 -11.4009 -46.3030 -87.9906 -0.0001 -27.9844 -0.0000 -20.7764 1.4652 -6.5340 -0.0000 0.0000 -0.0000 -0.0000 0.0000 -0.0000 9.3162 -5.7491 -7.2403 -11.4549 21.3044 81.6848 -0.0001 20.6000 0.0000 -0.3803 3.5830 -9.9682 -0.0000 0.0000 -0.0000 -0.0000 0.0000 -0.0000
 10.4087 32.6381 -37.6807 172.5637 -14.3259 -178.8749 -20.4723 28.0186 9.6593 25.9554 -0.0000 0.0000 -18.1275 -9.3240 1.7985 -8.5133 0.0000 -0.0000 -10.6818 12.8803 -3.4837 16.7358 -0.0000 0.0000 -16.2211 3.8475 -0.2984 -8.7476 0.0000 -0.0000 -5.1263 -2.5537 -9.3277 3.9220 -2.3224 16.9362 4.2709 -51.3227 7.3657 20.2724 70.4311 -18.7537 3.5458 21.8762 1.2333 -10.3804 -47.7582 -87.6665 -0.0001 -28.0562 -0.0000 -18.4889 1.9376 -6.3982 -0.0000 0.0000 -0.0000 -0.0000 0.0000 -0.0000 9.4722 -5.9970 -7.4341 -11.0262 19.9865 82.3496 -0.0001 21.1771 0.0000 -3.0270 4.7901 -9.5935 -0.0000 0.0000 -0.0000 -0.0000 0.0000 -0.0000
 10.0596 32.6927 -37.7534 172.4939 -14.2507 -178.3616 -19.8740 25.8676 10.5577 24.1097 -0.0000 0.0000 -18.0440 -9.9205 1.8631 -8.9867 -0.0000 0.0000 -9.5061 13.2690 -4.7596 15.2739 -0.0000 0.0000 -15.8719 3.5948 0.1891 -8.7867 0.0000 0.0000 -5.1200 -2.5787 -9.2949 3.7762 -2.3868 16.8610 3.8330 -51.4617 7.2519 19.4907 70.4755 -18.3408 3.6840 21.8624 1.0116 -9.5051 -48.3855 -86.8202 -0.0001 -27.9914 -0.0000 -19.0919 1.5727 -6.0483 -0.0000 0.0000 -0.0000 -0.0000 0.0000 -0.0000 9.3107 -6.0362 -7.6534 -9.7003 20.1703 82.4376 -0.0001 22.4300 0.0000 -4.8052 5.6140 -9.0211 -0.0000 0.0000 -0.0000 -0.0000 0.0000 -0.0000
